<?xml version="1.0" encoding="UTF-8"?>
<!DOCTYPE svg PUBLIC "-//W3C//DTD SVG 1.1//EN" "http://www.w3.org/Graphics/SVG/1.1/DTD/svg11.dtd">
<svg xmlns="http://www.w3.org/2000/svg" version="1.1" width="400px" height="300px" style="shape-rendering:geometricPrecision; text-rendering:geometricPrecision; image-rendering:optimizeQuality; fill-rule:evenodd; clip-rule:evenodd" xmlns:xlink="http://www.w3.org/1999/xlink">
<g><path style="opacity:1" fill="#302f28" d="M 246.5,106.5 C 246.998,109.487 247.498,112.487 248,115.5C 249.072,110.517 252.238,107.684 257.5,107C 282.119,106.128 292.452,117.961 288.5,142.5C 287.833,142.167 287.167,141.833 286.5,141.5C 285.511,137.893 285.177,134.226 285.5,130.5C 276.282,132.652 266.948,133.486 257.5,133C 251.694,130.858 247.528,127.024 245,121.5C 244.502,124.482 244.335,127.482 244.5,130.5C 244.5,130.833 244.5,131.167 244.5,131.5C 243.5,131.5 242.5,131.5 241.5,131.5C 240.833,131.5 240.167,131.5 239.5,131.5C 238.912,128.39 238.245,125.39 237.5,122.5C 235.065,118.942 233.732,114.942 233.5,110.5C 230.728,110.405 228.728,109.071 227.5,106.5C 218.785,106.642 211.785,103.308 206.5,96.5C 201.63,98.6704 196.63,99.0038 191.5,97.5C 187.579,100.142 183.245,101.809 178.5,102.5C 178.159,105.516 176.993,108.182 175,110.5C 170.716,113.387 166.549,116.387 162.5,119.5C 162.007,123.292 161.007,126.958 159.5,130.5C 158.5,130.5 157.5,130.5 156.5,130.5C 156.657,129.127 156.49,127.793 156,126.5C 155.71,128.044 155.044,129.377 154,130.5C 151.5,127.5 149,124.5 146.5,121.5C 144.8,124.066 143.467,126.899 142.5,130C 139.118,130.824 135.784,130.657 132.5,129.5C 131.692,127.075 130.692,124.742 129.5,122.5C 127.77,124.793 126.437,127.293 125.5,130C 122.518,130.498 119.518,130.665 116.5,130.5C 116.826,134.884 116.492,139.217 115.5,143.5C 113.795,134.898 114.629,126.565 118,118.5C 120.998,114.084 125.165,111.918 130.5,112C 134.967,107.699 140.3,106.365 146.5,108C 150.164,109.002 153.331,110.836 156,113.5C 154.626,109.057 154.293,104.391 155,99.5C 156.789,95.3081 158.123,90.9748 159,86.5C 160.396,84.4732 162.062,84.1398 164,85.5C 164.346,83.1523 165.513,81.3189 167.5,80C 170.907,79.5182 174.24,79.5182 177.5,80C 181.633,72.4419 187.466,70.6086 195,74.5C 196.822,72.9546 198.989,72.288 201.5,72.5C 204.672,72.4491 207.672,73.1158 210.5,74.5C 211.833,74.1667 213.167,73.8333 214.5,73.5C 217.527,74.361 220.194,75.861 222.5,78C 225.914,78.2969 229.247,78.9635 232.5,80C 236.316,85.4358 240.483,90.6024 245,95.5C 245.752,98.8936 245.585,102.227 244.5,105.5C 244.957,106.298 245.624,106.631 246.5,106.5 Z"/></g>
<g><path style="opacity:1" fill="#fdc7af" d="M 237.5,122.5 C 239.96,137.264 236.793,150.597 228,162.5C 215.006,174.788 200.173,177.622 183.5,171C 174.004,166.176 167.671,158.676 164.5,148.5C 162.855,138.927 162.189,129.26 162.5,119.5C 166.549,116.387 170.716,113.387 175,110.5C 176.993,108.182 178.159,105.516 178.5,102.5C 183.245,101.809 187.579,100.142 191.5,97.5C 196.63,99.0038 201.63,98.6704 206.5,96.5C 211.785,103.308 218.785,106.642 227.5,106.5C 228.728,109.071 230.728,110.405 233.5,110.5C 233.732,114.942 235.065,118.942 237.5,122.5 Z"/></g>
<g><path style="opacity:1" fill="#fcc7af" d="M 160.5,153.5 C 160.167,154.833 159.833,156.167 159.5,157.5C 151.825,170.257 141.158,173.423 127.5,167C 123.072,163.908 120.239,159.741 119,154.5C 118.5,147.174 118.334,139.841 118.5,132.5C 124.276,134.061 127.776,132.061 129,126.5C 129.837,128.351 130.671,130.184 131.5,132C 135.821,132.499 140.154,132.666 144.5,132.5C 144.699,130.04 145.365,127.707 146.5,125.5C 149.295,127.751 151.628,130.418 153.5,133.5C 149.991,141.468 152.157,147.468 160,151.5C 160.464,152.094 160.631,152.761 160.5,153.5 Z"/></g>
<g><path style="opacity:1" fill="#264a6e" d="M 199.5,132.5 C 201.022,133.191 202.022,134.358 202.5,136C 203.348,138.77 203.681,141.603 203.5,144.5C 200.753,144.813 198.086,144.48 195.5,143.5C 197.396,142.534 199.396,142.201 201.5,142.5C 201.424,139.027 200.758,135.694 199.5,132.5 Z"/></g>
<g><path style="opacity:0.813" fill="#1d4162" d="M 246.5,106.5 C 245.624,106.631 244.957,106.298 244.5,105.5C 245.585,102.227 245.752,98.8936 245,95.5C 240.483,90.6024 236.316,85.4358 232.5,80C 229.247,78.9635 225.914,78.2969 222.5,78C 220.194,75.861 217.527,74.361 214.5,73.5C 213.167,73.8333 211.833,74.1667 210.5,74.5C 207.672,73.1158 204.672,72.4491 201.5,72.5C 198.989,72.288 196.822,72.9546 195,74.5C 187.466,70.6086 181.633,72.4419 177.5,80C 174.24,79.5182 170.907,79.5182 167.5,80C 165.513,81.3189 164.346,83.1523 164,85.5C 162.062,84.1398 160.396,84.4732 159,86.5C 158.123,90.9748 156.789,95.3081 155,99.5C 154.293,104.391 154.626,109.057 156,113.5C 153.331,110.836 150.164,109.002 146.5,108C 140.3,106.365 134.967,107.699 130.5,112C 125.165,111.918 120.998,114.084 118,118.5C 114.629,126.565 113.795,134.898 115.5,143.5C 116.492,139.217 116.826,134.884 116.5,130.5C 119.518,130.665 122.518,130.498 125.5,130C 126.437,127.293 127.77,124.793 129.5,122.5C 130.692,124.742 131.692,127.075 132.5,129.5C 135.784,130.657 139.118,130.824 142.5,130C 143.467,126.899 144.8,124.066 146.5,121.5C 149,124.5 151.5,127.5 154,130.5C 155.044,129.377 155.71,128.044 156,126.5C 156.49,127.793 156.657,129.127 156.5,130.5C 157.5,130.5 158.5,130.5 159.5,130.5C 161.007,126.958 162.007,123.292 162.5,119.5C 162.189,129.26 162.855,138.927 164.5,148.5C 162.866,149.955 161.532,151.622 160.5,153.5C 160.631,152.761 160.464,152.094 160,151.5C 152.157,147.468 149.991,141.468 153.5,133.5C 151.628,130.418 149.295,127.751 146.5,125.5C 145.365,127.707 144.699,130.04 144.5,132.5C 140.154,132.666 135.821,132.499 131.5,132C 130.671,130.184 129.837,128.351 129,126.5C 127.776,132.061 124.276,134.061 118.5,132.5C 118.334,139.841 118.5,147.174 119,154.5C 120.239,159.741 123.072,163.908 127.5,167C 141.158,173.423 151.825,170.257 159.5,157.5C 161.042,156.699 162.708,156.366 164.5,156.5C 162.909,157.219 161.409,158.219 160,159.5C 156.887,164.987 152.387,168.987 146.5,171.5C 152.287,172.248 157.287,174.581 161.5,178.5C 162.852,177.476 164.185,176.476 165.5,175.5C 164.878,178.776 162.878,180.109 159.5,179.5C 155.48,175.236 150.48,173.236 144.5,173.5C 143.126,181.72 141.126,189.72 138.5,197.5C 137.165,189.491 135.832,181.491 134.5,173.5C 128.076,172.717 122.742,174.717 118.5,179.5C 118.5,178.833 118.5,178.167 118.5,177.5C 122.213,173.528 126.88,171.362 132.5,171C 126.416,168.416 121.75,164.25 118.5,158.5C 116.293,157.365 113.96,156.699 111.5,156.5C 107.982,165.062 109.316,172.728 115.5,179.5C 114.833,179.5 114.167,179.5 113.5,179.5C 109.21,176.327 107.21,171.994 107.5,166.5C 108.507,158.001 110.007,149.668 112,141.5C 111.515,132.381 113.181,123.715 117,115.5C 119.855,111.656 123.688,109.823 128.5,110C 136.242,103.185 144.408,102.685 153,108.5C 152.963,101.218 154.296,94.2175 157,87.5C 158.145,84.5228 160.312,82.8561 163.5,82.5C 164.849,78.8213 167.516,77.1546 171.5,77.5C 173.228,77.5901 174.894,77.9234 176.5,78.5C 181.074,71.1111 187.241,69.1111 195,72.5C 200.471,69.7643 205.805,70.0976 211,73.5C 215.293,71.9125 219.126,72.7458 222.5,76C 228.898,76.05 234.064,78.55 238,83.5C 240.951,87.8267 243.951,92.16 247,96.5C 247.543,99.8678 247.376,103.201 246.5,106.5 Z"/></g>
<g><path style="opacity:1" fill="#f4c3ac" d="M 159.5,130.5 C 160.118,136.101 161.118,141.767 162.5,147.5C 162.167,148.167 161.833,148.833 161.5,149.5C 151.664,144.015 150.997,137.681 159.5,130.5 Z"/></g>
<g><path style="opacity:1" fill="#f0c0ab" d="M 114.5,145.5 C 116.167,148.261 117.167,151.428 117.5,155C 114.287,155.304 112.287,153.804 111.5,150.5C 111.757,148.308 112.757,146.641 114.5,145.5 Z"/></g>
<g><path style="opacity:1" fill="#2a4c6f" d="M 138.5,145.5 C 142.111,146.895 143.111,149.395 141.5,153C 135.656,153.398 135.323,152.565 140.5,150.5C 139.544,148.925 138.877,147.258 138.5,145.5 Z"/></g>
<g><path style="opacity:0.89" fill="#214068" d="M 113.5,179.5 C 114.167,179.5 114.833,179.5 115.5,179.5C 116.5,178.833 117.5,178.167 118.5,177.5C 118.5,178.167 118.5,178.833 118.5,179.5C 117.68,181.14 116.847,182.807 116,184.5C 115.5,192.493 115.334,200.493 115.5,208.5C 118.167,208.5 120.833,208.5 123.5,208.5C 123.045,201.986 123.545,195.653 125,189.5C 126.455,195.653 126.955,201.986 126.5,208.5C 134.833,208.5 143.167,208.5 151.5,208.5C 152.167,183.167 152.833,183.167 153.5,208.5C 155.833,208.5 158.167,208.5 160.5,208.5C 160.327,202.064 160.994,195.73 162.5,189.5C 162.645,185.798 161.645,182.465 159.5,179.5C 162.878,180.109 164.878,178.776 165.5,175.5C 168.712,170.124 169.212,164.457 167,158.5C 166.583,157.244 165.75,156.577 164.5,156.5C 162.708,156.366 161.042,156.699 159.5,157.5C 159.833,156.167 160.167,154.833 160.5,153.5C 161.532,151.622 162.866,149.955 164.5,148.5C 167.671,158.676 174.004,166.176 183.5,171C 200.173,177.622 215.006,174.788 228,162.5C 236.793,150.597 239.96,137.264 237.5,122.5C 238.245,125.39 238.912,128.39 239.5,131.5C 239.822,137.128 239.155,142.628 237.5,148C 237.833,148.5 238.167,149 238.5,149.5C 246.419,144.653 247.419,138.653 241.5,131.5C 242.5,131.5 243.5,131.5 244.5,131.5C 249.824,140.523 247.824,147.523 238.5,152.5C 244.859,167.676 255.859,172.509 271.5,167C 278.486,163.186 282.486,157.353 283.5,149.5C 284.489,144.025 284.822,138.358 284.5,132.5C 282.901,132.232 281.568,132.566 280.5,133.5C 274.84,134.165 269.173,134.831 263.5,135.5C 256.861,135.527 251.194,133.194 246.5,128.5C 245.818,129.243 245.151,129.909 244.5,130.5C 244.335,127.482 244.502,124.482 245,121.5C 247.528,127.024 251.694,130.858 257.5,133C 266.948,133.486 276.282,132.652 285.5,130.5C 285.177,134.226 285.511,137.893 286.5,141.5C 287.167,141.833 287.833,142.167 288.5,142.5C 292.452,117.961 282.119,106.128 257.5,107C 252.238,107.684 249.072,110.517 248,115.5C 247.498,112.487 246.998,109.487 246.5,106.5C 247.458,106.953 248.292,107.619 249,108.5C 250.8,106.683 252.966,105.516 255.5,105C 271.54,101.272 283.04,106.772 290,121.5C 291.006,125.598 291.506,129.764 291.5,134C 290.766,139.895 290.599,145.728 291,151.5C 289.581,154.296 287.415,156.296 284.5,157.5C 281.569,164.263 276.569,168.763 269.5,171C 276.803,172.058 281.97,175.891 285,182.5C 286.42,192.086 286.92,201.753 286.5,211.5C 270.833,211.5 255.167,211.5 239.5,211.5C 239.5,217.167 239.5,222.833 239.5,228.5C 212.833,228.5 186.167,228.5 159.5,228.5C 159.5,222.833 159.5,217.167 159.5,211.5C 144.163,211.667 128.83,211.5 113.5,211C 112.357,200.382 112.357,189.882 113.5,179.5 Z M 234.5,156.5 C 235.675,156.281 236.675,156.614 237.5,157.5C 240.456,164.29 245.456,168.79 252.5,171C 242.111,172.389 235.944,178.223 234,188.5C 227.501,180.505 219.001,176.672 208.5,177C 220.068,173.731 228.734,166.898 234.5,156.5 Z M 170.5,164.5 C 176.589,170.211 183.589,174.377 191.5,177C 180.67,176.334 171.836,180.167 165,188.5C 164.627,186.302 164.127,184.135 163.5,182C 165.786,178.6 167.952,175.1 170,171.5C 170.497,169.19 170.663,166.857 170.5,164.5 Z"/></g>
<g><path style="opacity:1" fill="#d6b3a7" d="M 285.5,143.5 C 290.557,146.446 290.723,149.78 286,153.5C 285.502,150.183 285.335,146.85 285.5,143.5 Z"/></g>
<g><path style="opacity:1" fill="#8b8b93" d="M 280.5,133.5 C 281.568,132.566 282.901,132.232 284.5,132.5C 284.822,138.358 284.489,144.025 283.5,149.5C 283.5,144.167 283.5,138.833 283.5,133.5C 282.5,133.5 281.5,133.5 280.5,133.5 Z"/></g>
<g><path style="opacity:1" fill="#f3c2ad" d="M 239.5,131.5 C 240.167,131.5 240.833,131.5 241.5,131.5C 247.419,138.653 246.419,144.653 238.5,149.5C 238.167,149 237.833,148.5 237.5,148C 239.155,142.628 239.822,137.128 239.5,131.5 Z"/></g>
<g><path style="opacity:1" fill="#fcc9b1" d="M 280.5,133.5 C 281.5,133.5 282.5,133.5 283.5,133.5C 283.5,138.833 283.5,144.167 283.5,149.5C 282.486,157.353 278.486,163.186 271.5,167C 255.859,172.509 244.859,167.676 238.5,152.5C 247.824,147.523 249.824,140.523 244.5,131.5C 244.5,131.167 244.5,130.833 244.5,130.5C 245.151,129.909 245.818,129.243 246.5,128.5C 251.194,133.194 256.861,135.527 263.5,135.5C 269.173,134.831 274.84,134.165 280.5,133.5 Z"/></g>
<g><path style="opacity:1" fill="#2a4e72" d="M 259.5,143.5 C 262.89,144.944 264.223,147.61 263.5,151.5C 261.396,151.799 259.396,151.466 257.5,150.5C 258.689,149.571 260.022,149.238 261.5,149.5C 261.296,147.315 260.63,145.315 259.5,143.5 Z"/></g>
<g><path style="opacity:1" fill="#d2afa3" d="M 162.5,151.5 C 164.476,152.427 164.809,153.76 163.5,155.5C 162.571,154.311 162.238,152.978 162.5,151.5 Z"/></g>
<g><path style="opacity:1" fill="#302f28" d="M 118.5,177.5 C 117.5,178.167 116.5,178.833 115.5,179.5C 109.316,172.728 107.982,165.062 111.5,156.5C 113.96,156.699 116.293,157.365 118.5,158.5C 121.75,164.25 126.416,168.416 132.5,171C 126.88,171.362 122.213,173.528 118.5,177.5 Z"/></g>
<g><path style="opacity:1" fill="#302f28" d="M 164.5,156.5 C 165.75,156.577 166.583,157.244 167,158.5C 169.212,164.457 168.712,170.124 165.5,175.5C 164.185,176.476 162.852,177.476 161.5,178.5C 157.287,174.581 152.287,172.248 146.5,171.5C 152.387,168.987 156.887,164.987 160,159.5C 161.409,158.219 162.909,157.219 164.5,156.5 Z"/></g>
<g><path style="opacity:1" fill="#fbc6ae" d="M 137.5,172.5 C 139.167,172.5 140.833,172.5 142.5,172.5C 142.616,175.91 140.95,177.244 137.5,176.5C 137.5,175.167 137.5,173.833 137.5,172.5 Z"/></g>
<g><path style="opacity:1" fill="#efc0ab" d="M 257.5,172.5 C 259.5,172.5 261.5,172.5 263.5,172.5C 263.716,177.587 261.882,178.587 258,175.5C 257.517,174.552 257.351,173.552 257.5,172.5 Z"/></g>
<g><path style="opacity:1" fill="#e63757" d="M 159.5,179.5 C 161.645,182.465 162.645,185.798 162.5,189.5C 160.994,195.73 160.327,202.064 160.5,208.5C 158.167,208.5 155.833,208.5 153.5,208.5C 152.833,183.167 152.167,183.167 151.5,208.5C 143.167,208.5 134.833,208.5 126.5,208.5C 126.955,201.986 126.455,195.653 125,189.5C 123.545,195.653 123.045,201.986 123.5,208.5C 120.833,208.5 118.167,208.5 115.5,208.5C 115.334,200.493 115.5,192.493 116,184.5C 116.847,182.807 117.68,181.14 118.5,179.5C 122.742,174.717 128.076,172.717 134.5,173.5C 135.832,181.491 137.165,189.491 138.5,197.5C 141.126,189.72 143.126,181.72 144.5,173.5C 150.48,173.236 155.48,175.236 159.5,179.5 Z"/></g>
<g><path style="opacity:1" fill="#e53757" d="M 247.5,174.5 C 250.247,174.187 252.914,174.52 255.5,175.5C 257.604,182.355 258.938,189.355 259.5,196.5C 260.5,196.5 261.5,196.5 262.5,196.5C 263.017,189.4 264.183,182.4 266,175.5C 274.064,173.701 279.73,176.701 283,184.5C 283.5,192.493 283.666,200.493 283.5,208.5C 280.833,208.5 278.167,208.5 275.5,208.5C 274.833,184.5 274.167,184.5 273.5,208.5C 264.833,208.5 256.167,208.5 247.5,208.5C 247.666,202.158 247.5,195.825 247,189.5C 245.545,195.653 245.045,201.986 245.5,208.5C 243.5,208.5 241.5,208.5 239.5,208.5C 238.03,200.577 237.53,192.577 238,184.5C 240.022,179.98 243.189,176.647 247.5,174.5 Z"/></g>
<g><path style="opacity:1" fill="#f6c4ad" d="M 194.5,176.5 C 198.167,176.5 201.833,176.5 205.5,176.5C 206.815,181.768 204.982,185.101 200,186.5C 195.018,185.101 193.185,181.768 194.5,176.5 Z"/></g>
<g><path style="opacity:1" fill="#e73757" d="M 192.5,225.5 C 188.167,225.5 183.833,225.5 179.5,225.5C 179.823,218.978 179.49,212.645 178.5,206.5C 176.541,212.75 175.874,219.416 176.5,226.5C 171.833,226.5 167.167,226.5 162.5,226.5C 162.334,216.828 162.5,207.161 163,197.5C 168.517,184.488 178.35,178.821 192.5,180.5C 192.5,195.5 192.5,210.5 192.5,225.5 Z"/></g>
<g><path style="opacity:1" fill="#e73857" d="M 236.5,200.5 C 236.5,208.833 236.5,217.167 236.5,225.5C 231.833,225.5 227.167,225.5 222.5,225.5C 222.83,219.132 222.496,212.798 221.5,206.5C 220.503,213.134 220.17,219.8 220.5,226.5C 216.167,226.5 211.833,226.5 207.5,226.5C 207.5,211.167 207.5,195.833 207.5,180.5C 222.968,179.048 232.635,185.715 236.5,200.5 Z"/></g>
<g><path style="opacity:1" fill="#60a34d" d="M 145.5,186.5 C 150.041,186.815 151.041,188.649 148.5,192C 143.722,192.073 142.722,190.24 145.5,186.5 Z"/></g>
<g><path style="opacity:1" fill="#60a34d" d="M 267.5,186.5 C 272.041,186.815 273.041,188.649 270.5,192C 265.722,192.073 264.722,190.24 267.5,186.5 Z"/></g>
<g><path style="opacity:1" fill="#5dab45" d="M 212.5,197.5 C 221.009,198.491 221.676,201.158 214.5,205.5C 209.002,203.711 208.335,201.044 212.5,197.5 Z"/></g>
<g><path style="opacity:1" fill="#8f3a5e" d="M 178.5,206.5 C 179.49,212.645 179.823,218.978 179.5,225.5C 183.833,225.5 188.167,225.5 192.5,225.5C 188.03,226.486 183.363,226.819 178.5,226.5C 178.5,219.833 178.5,213.167 178.5,206.5 Z"/></g>
<g><path style="opacity:1" fill="#993a5d" d="M 236.5,200.5 C 237.493,208.984 237.826,217.651 237.5,226.5C 232.305,226.821 227.305,226.487 222.5,225.5C 227.167,225.5 231.833,225.5 236.5,225.5C 236.5,217.167 236.5,208.833 236.5,200.5 Z"/></g>
</svg>
